<svg width="48.000000" height="48.000000" viewBox="0 0 48 48" fill="none" xmlns="http://www.w3.org/2000/svg" xmlns:xlink="http://www.w3.org/1999/xlink">
	<desc>
			Created with Pixso.
	</desc>
	<defs>
		<clipPath id="clip1114_8572">
			<rect id="ic:baseline-facebook" width="21.677418" height="21.677418" transform="translate(13.161285 13.161133)" fill="white" fill-opacity="0"/>
		</clipPath>
	</defs>
	<rect id="Rectangle 172" rx="24.000000" width="48.000000" height="48.000000" fill="#FFFFFF" fill-opacity="1.000000"/>
	<rect id="Rectangle 172" x="0.500000" y="0.500000" rx="23.500000" width="47.000000" height="47.000000" stroke="#004C3F" stroke-opacity="1.000000" stroke-width="1.000000"/>
	<rect id="ic:baseline-facebook" width="21.677418" height="21.677418" transform="translate(13.161285 13.161133)" fill="#FFFFFF" fill-opacity="0"/>
	<g clip-path="url(#clip1114_8572)">
		<path id="Vector" d="M33.03 23.99C33.03 19.01 28.98 14.96 24 14.96C19.01 14.96 14.96 19.01 14.96 23.99C14.96 28.37 18.07 32.01 22.19 32.85L22.19 26.7L20.38 26.7L20.38 23.99L22.19 23.99L22.19 21.74C22.19 19.99 23.61 18.58 25.35 18.58L27.61 18.58L27.61 21.29L25.8 21.29C25.3 21.29 24.9 21.69 24.9 22.19L24.9 23.99L27.61 23.99L27.61 26.7L24.9 26.7L24.9 32.98C29.46 32.53 33.03 28.68 33.03 23.99Z" fill="#004C3F" fill-opacity="1.000000" fill-rule="nonzero"/>
	</g>
</svg>
