<svg width="50.000000" height="50.000000" viewBox="0 0 50 50" fill="none" xmlns="http://www.w3.org/2000/svg" xmlns:xlink="http://www.w3.org/1999/xlink">
	<desc>
			Created with Pixso.
	</desc>
	<defs>
		<clipPath id="clip12_5217">
			<rect id="fontisto:tripadvisor" width="22.580643" height="22.580643" transform="translate(13.709717 13.709473)" fill="white" fill-opacity="0"/>
		</clipPath>
	</defs>
	<rect id="Rectangle 170" x="0.500000" y="0.500000" rx="24.500000" width="49.000000" height="49.000000" fill="#FFFFFF" fill-opacity="1.000000"/>
	<rect id="Rectangle 170" x="0.500000" y="0.500000" rx="24.500000" width="49.000000" height="49.000000" stroke="#008060" stroke-opacity="1.000000" stroke-width="1.000000"/>
	<rect id="fontisto:tripadvisor" width="22.580643" height="22.580643" transform="translate(13.709717 13.709473)" fill="#FFFFFF" fill-opacity="0"/>
	<g clip-path="url(#clip12_5217)">
		<path id="Vector" d="M20.0896 25.8411L20.0896 25.856C20.0896 26.1062 19.9863 26.3311 19.8206 26.4929C19.739 26.5784 19.6409 26.646 19.532 26.6924C19.4233 26.7385 19.3064 26.7622 19.1885 26.762L19.178 26.762L19.179 26.762L19.177 26.762C18.9331 26.762 18.699 26.665 18.5264 26.4927C18.3538 26.3201 18.2568 26.0859 18.2568 25.8418L18.2568 25.8306C18.2568 25.5823 18.3604 25.3584 18.5261 25.1985C18.6086 25.113 18.7075 25.0449 18.8171 24.9985C18.9265 24.9521 19.0442 24.9282 19.1631 24.9282L19.179 24.9282L19.178 24.9282C19.4189 24.9309 19.6492 25.0276 19.8196 25.1978C19.99 25.3679 20.0869 25.5981 20.0896 25.8391L20.0896 25.8401L20.0896 25.8411ZM31.3979 25.8289C31.3979 26.073 31.3008 26.3074 31.1282 26.48C30.9553 26.6528 30.7212 26.7498 30.4768 26.7498C30.2324 26.7498 29.9983 26.6528 29.8254 26.48C29.6528 26.3074 29.5557 26.073 29.5557 25.8289L29.5557 25.8127C29.5557 25.5652 29.6592 25.3413 29.8247 25.1824C29.999 25.0117 30.2332 24.9165 30.4771 24.9165C30.7207 24.9167 30.9548 25.0125 31.1289 25.1833C31.2144 25.2646 31.2825 25.3625 31.3289 25.4712C31.3752 25.5798 31.3992 25.6965 31.3989 25.8147L31.3989 25.8306L31.3989 25.8296L31.3979 25.8289ZM21.2065 25.8381C21.2122 25.5864 21.1672 25.3362 21.0747 25.1021C20.9822 24.8679 20.844 24.6545 20.668 24.4746C20.4917 24.2947 20.2815 24.1516 20.0493 24.054C19.8174 23.9565 19.5681 23.9062 19.3164 23.9062C19.0645 23.9062 18.8154 23.9568 18.5833 24.0544C18.3513 24.1521 18.1411 24.2952 17.9651 24.4753C17.7891 24.6553 17.6509 24.8687 17.5583 25.1028C17.4661 25.3372 17.4214 25.5874 17.427 25.8391C17.438 26.333 17.6421 26.803 17.9951 27.1484C18.3484 27.4937 18.8228 27.687 19.3169 27.687C19.8108 27.687 20.2852 27.4937 20.6384 27.1484C20.9915 26.803 21.1956 26.333 21.2065 25.8391L21.2065 25.8381ZM32.5054 25.8289C32.5051 25.3916 32.3533 24.9678 32.0759 24.6299C31.7983 24.292 31.4124 24.0608 30.9834 23.9756C30.5547 23.8904 30.1094 23.9565 29.7239 24.1626C29.3384 24.3689 29.0361 24.7021 28.8689 25.1062C28.7014 25.5103 28.6794 25.9597 28.8062 26.3782C28.9331 26.7964 29.2012 27.158 29.5647 27.4009C29.9282 27.644 30.3647 27.7534 30.7998 27.7107C31.2349 27.668 31.6418 27.4756 31.9512 27.1667C32.2927 26.8345 32.5054 26.3706 32.5054 25.8579L32.5054 25.8279L32.5054 25.8296L32.5054 25.8289ZM22.0383 25.8381C22.0383 26.562 21.7507 27.2563 21.2388 27.7681C20.7271 28.28 20.0327 28.5676 19.3088 28.5676C18.585 28.5676 17.8906 28.28 17.3789 27.7681C16.8669 27.2563 16.5793 26.562 16.5793 25.8381L16.5793 25.7996C16.5793 25.0581 16.8879 24.3892 17.3828 23.9131L17.3838 23.9121C17.6296 23.6604 17.9233 23.4604 18.2476 23.3242C18.572 23.1877 18.9202 23.1177 19.2722 23.1182L19.3174 23.1182L19.3154 23.1182L19.354 23.1182C19.7051 23.1177 20.0527 23.1877 20.3762 23.3247C20.6997 23.4614 20.9924 23.6619 21.2366 23.9141L21.2375 23.915C21.7305 24.3931 22.0374 25.061 22.0374 25.8015L22.0374 25.8428L22.0374 25.8411L22.0383 25.8381ZM33.3474 25.8289L33.3474 25.8325C33.3474 26.4641 33.1282 27.0759 32.7275 27.564C32.3269 28.052 31.7693 28.3862 31.1499 28.5093C30.5305 28.6323 29.8877 28.5369 29.3308 28.239C28.7739 27.9412 28.3376 27.4595 28.0959 26.876C27.8545 26.2927 27.8228 25.6436 28.0063 25.0391C28.1897 24.4348 28.5769 23.9131 29.1023 23.5623C29.6274 23.2117 30.2578 23.054 30.8862 23.116C31.5146 23.178 32.1023 23.4561 32.5486 23.9028C33.0415 24.3809 33.3474 25.0488 33.3474 25.7883L33.3474 25.8306L33.3474 25.8289ZM23.9001 25.8579L23.9011 25.792C23.9019 25.2075 23.7847 24.6289 23.5566 24.0906C23.3289 23.5522 22.9949 23.0654 22.5745 22.6589L22.5735 22.658C22.1672 22.2373 21.6804 21.9028 21.1418 21.6746C20.6035 21.4463 20.0244 21.3289 19.4397 21.3296L19.3699 21.3306L19.3738 21.3306L19.3435 21.3306C18.5203 21.3306 17.7498 21.5564 17.0913 21.9495L17.1108 21.9382C15.7532 22.738 14.8557 24.1936 14.8557 25.8579C14.8557 27.5222 15.7524 28.9778 17.0894 29.7664L17.1101 29.7776C17.7859 30.1777 18.5574 30.3877 19.3428 30.3853L19.3765 30.3853L19.3748 30.3853L19.4404 30.3862C20.0251 30.387 20.6038 30.2698 21.1421 30.0417C21.6804 29.814 22.1672 29.48 22.5735 29.0596L22.5745 29.0588C22.9954 28.6526 23.3298 28.1655 23.5581 27.627C23.7864 27.0886 23.9036 26.5095 23.9031 25.9248L23.9021 25.856L23.9021 25.8599L23.9001 25.8579ZM30.4485 20.2419C28.8867 19.5562 27.0671 19.1562 25.1533 19.1562L24.9917 19.1572L25 19.1572C23.041 19.1233 21.0967 19.5022 19.2937 20.2693L19.385 20.2344L19.4011 20.2344C20.1838 20.2344 20.929 20.3989 21.6025 20.6946L21.5679 20.6804C22.2632 20.9768 22.8567 21.3823 23.3564 21.8809C23.856 22.3877 24.2563 22.9836 24.5371 23.6375L24.5513 23.6741C24.8335 24.313 24.9973 25.0581 24.9973 25.8411L24.9973 25.8579L24.9973 25.8569C24.9973 24.3337 25.6003 22.9517 26.5798 21.9355L26.5779 21.9373C27.0688 21.4407 27.6462 21.0376 28.2817 20.748L28.3176 20.7332C28.9824 20.4255 29.7039 20.2585 30.4363 20.2429L30.4429 20.2429L30.4485 20.2419ZM35.1436 25.8569C35.1421 24.8108 34.7783 23.7971 34.1135 22.9893C33.4487 22.1812 32.5244 21.6287 31.498 21.4258C30.4717 21.2227 29.4067 21.3818 28.4844 21.8762C27.5623 22.3704 26.8398 23.1689 26.4404 24.136C26.041 25.103 25.9895 26.1787 26.2942 27.1797C26.5989 28.1807 27.2412 29.0449 28.1116 29.6255C28.9822 30.2058 30.0271 30.4666 31.0681 30.363C32.1094 30.2595 33.0823 29.7983 33.8215 29.0579C34.2407 28.6514 34.574 28.1648 34.801 27.6272C35.0283 27.0894 35.145 26.5112 35.1445 25.9275L35.1436 25.8533L35.1436 25.8569ZM32.5374 20.3105L36.2903 20.3105C36.0051 20.6426 35.7629 21.0093 35.5696 21.4021L35.5564 21.4321C35.3774 21.7771 35.2468 22.1455 35.1689 22.5264L35.1641 22.5544C35.8665 23.5139 36.2437 24.6726 36.2405 25.8616C36.2405 27.0208 35.8818 28.1514 35.2139 29.0986C34.5459 30.0459 33.6013 30.7632 32.5095 31.1523C31.4177 31.5415 30.2322 31.5835 29.1157 31.2722C27.999 30.9612 27.0061 30.312 26.2729 29.4143L26.2656 29.4041C25.8552 29.9131 25.4385 30.4861 25.0508 31.0796L25 31.1616C24.8364 30.8743 24.6553 30.5972 24.458 30.3318L24.4731 30.3533C24.196 29.9583 23.9526 29.6399 23.7432 29.3984C22.8181 30.5317 21.4875 31.2598 20.0344 31.4272C18.5811 31.5947 17.1199 31.1887 15.9614 30.2954C14.8027 29.4021 14.0386 28.0923 13.8311 26.644C13.6235 25.196 13.989 23.7241 14.8501 22.5413L14.8389 22.5583C14.759 22.1592 14.6233 21.7732 14.4351 21.4124L14.4465 21.4358C14.249 21.0288 13.9995 20.6494 13.7041 20.3069L13.7097 20.3135L17.2869 20.3135C18.3306 19.6294 19.4773 19.1177 20.6833 18.7976L20.7661 18.7788C22.1226 18.4075 23.5232 18.2214 24.9294 18.2256L25.0039 18.2256L25 18.2256L25.1008 18.2256C26.5337 18.2256 27.9187 18.426 29.2312 18.8005L29.1248 18.7751C30.4214 19.1355 31.5559 19.6614 32.5796 20.3416L32.5354 20.3145L32.5374 20.3105Z" fill="#008060" fill-opacity="1.000000" fill-rule="nonzero"/>
	</g>
</svg>
