<svg width="48.000000" height="48.000000" viewBox="0 0 48 48" fill="none" xmlns="http://www.w3.org/2000/svg" xmlns:xlink="http://www.w3.org/1999/xlink">
	<desc>
			Created with Pixso.
	</desc>
	<defs>
		<clipPath id="clip1114_8580">
			<rect id="mdi:instagram" width="21.677420" height="21.677420" transform="translate(13.161285 13.161255)" fill="white" fill-opacity="0"/>
		</clipPath>
	</defs>
	<rect id="Rectangle 173" rx="24.000000" width="48.000000" height="48.000000" fill="#FFFFFF" fill-opacity="1.000000"/>
	<rect id="Rectangle 173" x="0.500000" y="0.500000" rx="23.500000" width="47.000000" height="47.000000" stroke="#004C3F" stroke-opacity="1.000000" stroke-width="1.000000"/>
	<rect id="mdi:instagram" width="21.677420" height="21.677420" transform="translate(13.161285 13.161255)" fill="#FFFFFF" fill-opacity="0"/>
	<g clip-path="url(#clip1114_8580)">
		<path id="Vector" d="M20.2 14.96L27.79 14.96C30.68 14.96 33.03 17.31 33.03 20.2L33.03 27.79C33.03 29.18 32.48 30.51 31.49 31.49C30.51 32.48 29.18 33.03 27.79 33.03L20.2 33.03C17.31 33.03 14.96 30.68 14.96 27.79L14.96 20.2C14.96 18.81 15.51 17.48 16.5 16.5C17.48 15.51 18.81 14.96 20.2 14.96ZM20.02 16.77C19.16 16.77 18.33 17.11 17.72 17.72C17.11 18.33 16.77 19.16 16.77 20.02L16.77 27.97C16.77 29.77 18.22 31.22 20.02 31.22L27.97 31.22C28.83 31.22 29.66 30.88 30.27 30.27C30.88 29.66 31.22 28.83 31.22 27.97L31.22 20.02C31.22 18.22 29.77 16.77 27.97 16.77L20.02 16.77ZM28.74 18.12C29.04 18.12 29.32 18.24 29.54 18.45C29.75 18.67 29.87 18.95 29.87 19.25C29.87 19.55 29.75 19.84 29.54 20.05C29.32 20.26 29.04 20.38 28.74 20.38C28.44 20.38 28.15 20.26 27.94 20.05C27.73 19.84 27.61 19.55 27.61 19.25C27.61 18.95 27.73 18.67 27.94 18.45C28.15 18.24 28.44 18.12 28.74 18.12ZM24 19.48C25.19 19.48 26.34 19.95 27.19 20.8C28.04 21.65 28.51 22.8 28.51 23.99C28.51 25.19 28.04 26.34 27.19 27.19C26.34 28.04 25.19 28.51 24 28.51C22.8 28.51 21.65 28.04 20.8 27.19C19.95 26.34 19.48 25.19 19.48 23.99C19.48 22.8 19.95 21.65 20.8 20.8C21.65 19.95 22.8 19.48 24 19.48ZM24 21.29C23.28 21.29 22.59 21.57 22.08 22.08C21.57 22.59 21.29 23.28 21.29 23.99C21.29 24.71 21.57 25.4 22.08 25.91C22.59 26.42 23.28 26.7 24 26.7C24.71 26.7 25.4 26.42 25.91 25.91C26.42 25.4 26.7 24.71 26.7 23.99C26.7 23.28 26.42 22.59 25.91 22.08C25.4 21.57 24.71 21.29 24 21.29Z" fill="#004C3F" fill-opacity="1.000000" fill-rule="nonzero"/>
	</g>
</svg>
