<svg width="48.000000" height="48.000000" viewBox="0 0 48 48" fill="none" xmlns="http://www.w3.org/2000/svg" xmlns:xlink="http://www.w3.org/1999/xlink">
	<desc>
			Created with Pixso.
	</desc>
	<defs>
		<clipPath id="clip1114_8568">
			<rect id="fontisto:tripadvisor" width="21.677418" height="21.677418" transform="translate(13.161316 13.161133)" fill="white" fill-opacity="0"/>
		</clipPath>
	</defs>
	<rect id="Rectangle 170" rx="24.000000" width="48.000000" height="48.000000" fill="#FFFFFF" fill-opacity="1.000000"/>
	<rect id="Rectangle 170" x="0.500000" y="0.500000" rx="23.500000" width="47.000000" height="47.000000" stroke="#004C3F" stroke-opacity="1.000000" stroke-width="1.000000"/>
	<rect id="fontisto:tripadvisor" width="21.677418" height="21.677418" transform="translate(13.161316 13.161133)" fill="#FFFFFF" fill-opacity="0"/>
	<g clip-path="url(#clip1114_8568)">
		<path id="Vector" d="M19.28 24.8L19.28 24.82C19.28 25.06 19.18 25.27 19.02 25.43C18.94 25.51 18.85 25.58 18.75 25.62C18.64 25.66 18.53 25.69 18.42 25.69L18.41 25.69L18.41 25.69L18.4 25.69C18.17 25.69 17.95 25.59 17.78 25.43C17.61 25.26 17.52 25.04 17.52 24.8L17.52 24.79C17.52 24.55 17.62 24.34 17.78 24.19C17.86 24.1 17.95 24.04 18.06 23.99C18.16 23.95 18.28 23.93 18.39 23.93L18.41 23.93L18.41 23.93C18.64 23.93 18.86 24.02 19.02 24.18C19.19 24.35 19.28 24.57 19.28 24.8L19.28 24.8L19.28 24.8ZM30.14 24.79C30.14 25.03 30.04 25.25 29.88 25.42C29.71 25.58 29.49 25.67 29.25 25.67C29.02 25.67 28.79 25.58 28.63 25.42C28.46 25.25 28.37 25.03 28.37 24.79L28.37 24.78C28.37 24.54 28.47 24.32 28.63 24.17C28.79 24.01 29.02 23.91 29.25 23.91C29.49 23.92 29.71 24.01 29.88 24.17C29.96 24.25 30.03 24.34 30.07 24.45C30.12 24.55 30.14 24.66 30.14 24.78L30.14 24.79L30.14 24.79L30.14 24.79ZM20.35 24.8C20.36 24.56 20.32 24.32 20.23 24.09C20.14 23.87 20.01 23.66 19.84 23.49C19.67 23.32 19.47 23.18 19.24 23.09C19.02 22.99 18.78 22.95 18.54 22.95C18.3 22.95 18.06 22.99 17.83 23.09C17.61 23.18 17.41 23.32 17.24 23.49C17.07 23.66 16.94 23.87 16.85 24.09C16.76 24.32 16.72 24.56 16.72 24.8C16.74 25.27 16.93 25.73 17.27 26.06C17.61 26.39 18.06 26.57 18.54 26.57C19.01 26.57 19.47 26.39 19.81 26.06C20.15 25.73 20.34 25.27 20.35 24.8L20.35 24.8ZM31.2 24.79C31.2 24.37 31.05 23.96 30.79 23.64C30.52 23.32 30.15 23.09 29.74 23.01C29.33 22.93 28.9 22.99 28.53 23.19C28.16 23.39 27.87 23.71 27.71 24.1C27.55 24.48 27.53 24.92 27.65 25.32C27.77 25.72 28.03 26.07 28.38 26.3C28.73 26.53 29.15 26.64 29.56 26.6C29.98 26.56 30.37 26.37 30.67 26.08C31 25.76 31.2 25.31 31.2 24.82L31.2 24.79L31.2 24.79L31.2 24.79ZM21.15 24.8C21.15 25.49 20.88 26.16 20.38 26.65C19.89 27.14 19.23 27.42 18.53 27.42C17.84 27.42 17.17 27.14 16.68 26.65C16.19 26.16 15.91 25.49 15.91 24.8L15.91 24.76C15.91 24.05 16.21 23.41 16.68 22.95L16.68 22.95C16.92 22.71 17.2 22.52 17.51 22.39C17.82 22.26 18.16 22.19 18.5 22.19L18.54 22.19L18.54 22.19L18.57 22.19C18.91 22.19 19.25 22.26 19.56 22.39C19.87 22.52 20.15 22.71 20.38 22.95L20.38 22.95C20.86 23.41 21.15 24.05 21.15 24.76L21.15 24.8L21.15 24.8L21.15 24.8ZM32.01 24.79L32.01 24.79C32.01 25.4 31.8 25.99 31.41 26.46C31.03 26.93 30.49 27.25 29.9 27.36C29.3 27.48 28.69 27.39 28.15 27.1C27.62 26.82 27.2 26.36 26.97 25.8C26.74 25.24 26.7 24.61 26.88 24.03C27.06 23.45 27.43 22.95 27.93 22.61C28.44 22.28 29.04 22.13 29.65 22.19C30.25 22.25 30.81 22.51 31.24 22.94C31.71 23.4 32.01 24.04 32.01 24.75L32.01 24.79L32.01 24.79ZM22.94 24.82L22.94 24.76C22.94 24.19 22.83 23.64 22.61 23.12C22.39 22.61 22.07 22.14 21.67 21.75L21.67 21.75C21.28 21.34 20.81 21.02 20.29 20.8C19.77 20.58 19.22 20.47 18.66 20.47L18.59 20.47L18.59 20.47L18.56 20.47C17.77 20.47 17.03 20.69 16.4 21.07L16.42 21.06C15.12 21.82 14.26 23.22 14.26 24.82C14.26 26.42 15.12 27.81 16.4 28.57L16.42 28.58C17.07 28.97 17.81 29.17 18.56 29.16L18.6 29.16L18.59 29.16L18.66 29.17C19.22 29.17 19.77 29.05 20.29 28.84C20.81 28.62 21.28 28.3 21.67 27.89L21.67 27.89C22.07 27.5 22.39 27.03 22.61 26.52C22.83 26 22.94 25.44 22.94 24.88L22.94 24.82L22.94 24.82L22.94 24.82ZM29.23 19.43C27.73 18.77 25.98 18.38 24.14 18.38L23.99 18.39L24 18.39C22.11 18.35 20.25 18.72 18.52 19.45L18.6 19.42L18.62 19.42C19.37 19.42 20.09 19.58 20.73 19.86L20.7 19.85C21.37 20.13 21.94 20.52 22.42 21C22.9 21.49 23.28 22.06 23.55 22.69L23.56 22.72C23.84 23.34 23.99 24.05 23.99 24.8L23.99 24.82L23.99 24.82C23.99 23.36 24.57 22.03 25.51 21.05L25.51 21.05C25.98 20.58 26.54 20.19 27.15 19.91L27.18 19.9C27.82 19.6 28.51 19.44 29.21 19.43L29.22 19.43L29.23 19.43ZM33.73 24.82C33.73 23.81 33.38 22.84 32.74 22.06C32.11 21.29 31.22 20.76 30.23 20.56C29.25 20.37 28.23 20.52 27.34 21C26.45 21.47 25.76 22.24 25.38 23.17C24.99 24.09 24.94 25.13 25.24 26.09C25.53 27.05 26.15 27.88 26.98 28.44C27.82 28.99 28.82 29.24 29.82 29.14C30.82 29.04 31.75 28.6 32.46 27.89C32.87 27.5 33.19 27.03 33.4 26.52C33.62 26 33.73 25.45 33.73 24.89L33.73 24.81L33.73 24.82ZM31.23 19.49L34.83 19.49C34.56 19.81 34.33 20.16 34.14 20.54L34.13 20.57C33.96 20.9 33.83 21.25 33.76 21.62L33.75 21.65C34.43 22.57 34.79 23.68 34.79 24.82C34.79 25.93 34.44 27.02 33.8 27.93C33.16 28.84 32.25 29.53 31.2 29.9C30.16 30.27 29.02 30.32 27.95 30.02C26.87 29.72 25.92 29.09 25.22 28.23L25.21 28.22C24.82 28.71 24.42 29.26 24.04 29.83L24 29.91C23.84 29.63 23.66 29.37 23.47 29.11L23.49 29.13C23.22 28.75 22.99 28.45 22.79 28.22C21.9 29.31 20.62 30 19.23 30.17C17.83 30.33 16.43 29.94 15.32 29.08C14.21 28.22 13.47 26.96 13.27 25.57C13.07 24.18 13.42 22.77 14.25 21.63L14.24 21.65C14.16 21.27 14.03 20.9 13.85 20.55L13.86 20.57C13.67 20.18 13.43 19.82 13.15 19.49L13.16 19.5L16.59 19.5C17.59 18.84 18.69 18.35 19.85 18.04L19.93 18.02C21.23 17.67 22.58 17.49 23.93 17.49L24 17.49L24 17.49L24.09 17.49C25.47 17.49 26.8 17.68 28.06 18.04L27.95 18.02C29.2 18.37 30.29 18.87 31.27 19.52L31.23 19.5L31.23 19.49Z" fill="#004C3F" fill-opacity="1.000000" fill-rule="nonzero"/>
	</g>
</svg>
