<svg width="41.000000" height="22.000000" viewBox="0 0 41 22" fill="none" xmlns="http://www.w3.org/2000/svg" xmlns:xlink="http://www.w3.org/1999/xlink">
	<desc>
			Created with Pixso.
	</desc>
	<defs/>
	<path id="Vector" d="M0 0.36C0 -0.33 0.55 -0.89 1.25 -0.89L39.25 -0.89C39.94 -0.89 40.5 -0.33 40.5 0.36C40.5 1.05 39.94 1.61 39.25 1.61L1.25 1.61C0.55 1.61 0 1.05 0 0.36ZM0 10.36C0 9.67 0.55 9.11 1.25 9.11L32.01 9.11C32.7 9.11 33.26 9.67 33.26 10.36C33.26 11.05 32.7 11.61 32.01 11.61L1.25 11.61C0.55 11.61 0 11.05 0 10.36ZM1.25 19.11C0.55 19.11 0 19.67 0 20.36C0 21.05 0.55 21.61 1.25 21.61L23.86 21.61C24.55 21.61 25.11 21.05 25.11 20.36C25.11 19.67 24.55 19.11 23.86 19.11L1.25 19.11Z" fill="#868686" fill-opacity="1.000000" fill-rule="evenodd"/>
</svg>
