<svg width="48.000000" height="48.000000" viewBox="0 0 48 48" fill="none" xmlns="http://www.w3.org/2000/svg" xmlns:xlink="http://www.w3.org/1999/xlink">
	<desc>
			Created with Pixso.
	</desc>
	<defs>
		<clipPath id="clip1114_8576">
			<rect id="mdi:whatsapp" width="21.677418" height="21.677418" transform="translate(13.161285 13.161133)" fill="white" fill-opacity="0"/>
		</clipPath>
	</defs>
	<rect id="Rectangle 170" rx="24.000000" width="48.000000" height="48.000000" fill="#FFFFFF" fill-opacity="1.000000"/>
	<rect id="Rectangle 170" x="0.500000" y="0.500000" rx="23.500000" width="47.000000" height="47.000000" stroke="#004C3F" stroke-opacity="1.000000" stroke-width="1.000000"/>
	<rect id="mdi:whatsapp" width="21.677418" height="21.677418" transform="translate(13.161285 13.161133)" fill="#FFFFFF" fill-opacity="0"/>
	<g clip-path="url(#clip1114_8576)">
		<path id="Vector" d="M24.03 14.96C19.1 14.96 15.08 18.98 15.08 23.91C15.08 25.49 15.5 27.03 16.27 28.38L15.01 33.03L19.75 31.78C21.06 32.49 22.53 32.87 24.03 32.87C28.96 32.87 32.98 28.85 32.98 23.92C32.98 21.53 32.05 19.28 30.36 17.59C29.53 16.75 28.55 16.09 27.46 15.64C26.37 15.19 25.21 14.96 24.03 14.96ZM24.04 16.47C26.03 16.47 27.89 17.25 29.3 18.66C29.99 19.35 30.54 20.17 30.91 21.07C31.28 21.98 31.48 22.94 31.47 23.92C31.47 28.02 28.13 31.36 24.03 31.36C22.69 31.36 21.38 31 20.25 30.32L19.98 30.16L17.16 30.9L17.91 28.16L17.73 27.87C16.98 26.69 16.59 25.31 16.59 23.91C16.6 19.81 19.93 16.47 24.04 16.47ZM20.86 19.78C20.72 19.78 20.47 19.83 20.26 20.06C20.07 20.28 19.48 20.83 19.48 21.93C19.48 23.03 20.28 24.09 20.38 24.24C20.51 24.39 21.97 26.65 24.22 27.61C24.75 27.85 25.17 27.99 25.49 28.09C26.03 28.26 26.52 28.23 26.9 28.18C27.34 28.11 28.22 27.63 28.41 27.11C28.6 26.59 28.6 26.14 28.55 26.05C28.48 25.95 28.34 25.9 28.11 25.8C27.89 25.67 26.79 25.13 26.59 25.06C26.38 24.99 26.25 24.95 26.08 25.17C25.94 25.39 25.5 25.9 25.38 26.05C25.24 26.2 25.12 26.22 24.9 26.11C24.66 25.99 23.94 25.76 23.09 25C22.42 24.4 21.98 23.67 21.85 23.44C21.74 23.23 21.84 23.09 21.94 22.99C22.04 22.89 22.19 22.73 22.28 22.59C22.4 22.47 22.43 22.37 22.5 22.22C22.58 22.07 22.54 21.94 22.49 21.84C22.43 21.74 21.98 20.62 21.79 20.17C21.61 19.74 21.43 19.79 21.29 19.79C21.16 19.79 21.01 19.78 20.86 19.78Z" fill="#004C3F" fill-opacity="1.000000" fill-rule="nonzero"/>
	</g>
</svg>
