<svg width="50.000000" height="50.000000" viewBox="0 0 50 50" fill="none" xmlns="http://www.w3.org/2000/svg" xmlns:xlink="http://www.w3.org/1999/xlink">
	<desc>
			Created with Pixso.
	</desc>
	<defs>
		<clipPath id="clip12_5225">
			<rect id="mdi:whatsapp" width="22.580643" height="22.580643" transform="translate(13.709717 13.709473)" fill="white" fill-opacity="0"/>
		</clipPath>
	</defs>
	<rect id="Rectangle 170" x="0.500000" y="0.500000" rx="24.500000" width="49.000000" height="49.000000" fill="#FFFFFF" fill-opacity="1.000000"/>
	<rect id="Rectangle 170" x="0.500000" y="0.500000" rx="24.500000" width="49.000000" height="49.000000" stroke="#008060" stroke-opacity="1.000000" stroke-width="1.000000"/>
	<rect id="mdi:whatsapp" width="22.580643" height="22.580643" transform="translate(13.709717 13.709473)" fill="#FFFFFF" fill-opacity="0"/>
	<g clip-path="url(#clip12_5225)">
		<path id="Vector" d="M25.0376 15.5911C19.9006 15.5911 15.7136 19.7778 15.7136 24.915C15.7136 26.5615 16.1465 28.1611 16.9556 29.5723L15.6384 34.4082L20.5779 33.1099C21.9421 33.8533 23.4758 34.2483 25.0376 34.2483C30.1748 34.2483 34.3616 30.0615 34.3616 24.9246C34.3616 22.4312 33.3926 20.0884 31.6331 18.3291C30.7705 17.4578 29.7429 16.7668 28.6106 16.2969C27.4783 15.8267 26.2637 15.5869 25.0376 15.5911ZM25.0471 17.1624C27.1169 17.1624 29.0552 17.9714 30.5229 19.4392C31.2432 20.1594 31.8142 21.0146 32.2034 21.9558C32.5925 22.897 32.792 23.906 32.7903 24.9246C32.7903 29.196 29.3091 32.6677 25.0376 32.6677C23.6453 32.6677 22.281 32.3008 21.0955 31.5857L20.8132 31.4258L17.8777 32.1973L18.6587 29.3372L18.4705 29.0361C17.6931 27.8022 17.2822 26.3733 17.2849 24.915C17.2944 20.6436 20.7661 17.1624 25.0471 17.1624ZM21.7351 20.606C21.5847 20.606 21.3306 20.6624 21.1143 20.8975C20.9072 21.1328 20.2957 21.7068 20.2957 22.8452C20.2957 23.9929 21.1331 25.0938 21.2366 25.2537C21.3682 25.4138 22.8926 27.7659 25.2351 28.7632C25.7903 29.0171 26.2231 29.1582 26.5618 29.2617C27.1169 29.4407 27.625 29.4124 28.0295 29.356C28.4812 29.29 29.4033 28.7915 29.6008 28.2456C29.7983 27.7 29.7983 27.239 29.7419 27.1355C29.676 27.0415 29.5256 26.9849 29.2903 26.8813C29.0552 26.7498 27.9072 26.1853 27.7002 26.1099C27.4839 26.0347 27.3521 25.9971 27.1733 26.2229C27.0229 26.458 26.5713 26.9849 26.4395 27.1355C26.2983 27.2954 26.1667 27.3142 25.9409 27.2014C25.6963 27.0791 24.9436 26.8345 24.0591 26.0442C23.3628 25.4231 22.9019 24.6611 22.7607 24.4258C22.6479 24.2 22.7512 24.0588 22.8643 23.9553C22.9678 23.8518 23.1182 23.6826 23.2124 23.5415C23.3347 23.4097 23.3723 23.3062 23.4475 23.1555C23.5229 22.9956 23.4851 22.864 23.4287 22.751C23.3723 22.6475 22.9019 21.481 22.7043 21.0198C22.5161 20.5684 22.3279 20.6248 22.1775 20.6152C22.0457 20.6152 21.8953 20.606 21.7351 20.606Z" fill="#008060" fill-opacity="1.000000" fill-rule="nonzero"/>
	</g>
</svg>
