<svg width="50.000000" height="50.000000" viewBox="0 0 50 50" fill="none" xmlns="http://www.w3.org/2000/svg" xmlns:xlink="http://www.w3.org/1999/xlink">
	<desc>
			Created with Pixso.
	</desc>
	<defs>
		<clipPath id="clip12_5229">
			<rect id="mdi:instagram" width="22.580643" height="22.580643" transform="translate(13.709473 13.709473)" fill="white" fill-opacity="0"/>
		</clipPath>
	</defs>
	<rect id="Rectangle 173" x="0.500000" y="0.500000" rx="24.500000" width="49.000000" height="49.000000" fill="#FFFFFF" fill-opacity="1.000000"/>
	<rect id="Rectangle 173" x="0.500000" y="0.500000" rx="24.500000" width="49.000000" height="49.000000" stroke="#008060" stroke-opacity="1.000000" stroke-width="1.000000"/>
	<rect id="mdi:instagram" width="22.580643" height="22.580643" transform="translate(13.709473 13.709473)" fill="#FFFFFF" fill-opacity="0"/>
	<g clip-path="url(#clip12_5229)">
		<path id="Vector" d="M21.0483 15.5911L28.9514 15.5911C31.9622 15.5911 34.4084 18.0374 34.4084 21.0481L34.4084 28.9512C34.4084 30.3984 33.8335 31.7866 32.8103 32.8101C31.7869 33.8333 30.3987 34.4082 28.9514 34.4082L21.0483 34.4082C18.0376 34.4082 15.5913 31.9619 15.5913 28.9512L15.5913 21.0481C15.5913 19.6008 16.1663 18.2126 17.1897 17.1895C18.2129 16.166 19.6011 15.5911 21.0483 15.5911ZM20.8601 17.4729C19.9619 17.4729 19.1003 17.8296 18.4651 18.4648C17.8298 19.1001 17.4731 19.9617 17.4731 20.8599L17.4731 29.1394C17.4731 31.0117 18.9878 32.5266 20.8601 32.5266L29.1396 32.5266C30.0381 32.5266 30.8994 32.1697 31.5347 31.5344C32.1699 30.8992 32.5269 30.0378 32.5269 29.1394L32.5269 20.8599C32.5269 18.9875 31.012 17.4729 29.1396 17.4729L20.8601 17.4729ZM29.9395 18.884C30.2512 18.884 30.5505 19.0081 30.771 19.2285C30.9917 19.449 31.1155 19.7483 31.1155 20.0601C31.1155 20.3721 30.9917 20.6711 30.771 20.8918C30.5505 21.1123 30.2512 21.2363 29.9395 21.2363C29.6274 21.2363 29.3284 21.1123 29.1079 20.8918C28.8872 20.6711 28.7634 20.3721 28.7634 20.0601C28.7634 19.7483 28.8872 19.449 29.1079 19.2285C29.3284 19.0081 29.6274 18.884 29.9395 18.884ZM25 20.2954C26.2476 20.2954 27.4441 20.791 28.3264 21.6733C29.2085 22.5554 29.7041 23.752 29.7041 24.9998C29.7041 26.2473 29.2085 27.4438 28.3264 28.3262C27.4441 29.2083 26.2476 29.7039 25 29.7039C23.7522 29.7039 22.5557 29.2083 21.6736 28.3262C20.7913 27.4438 20.2957 26.2473 20.2957 24.9998C20.2957 23.752 20.7913 22.5554 21.6736 21.6733C22.5557 20.791 23.7522 20.2954 25 20.2954ZM25 22.177C24.2512 22.177 23.5334 22.4744 23.0042 23.0039C22.4746 23.5332 22.1772 24.251 22.1772 24.9998C22.1772 25.7483 22.4746 26.4663 23.0042 26.9956C23.5334 27.5249 24.2512 27.8223 25 27.8223C25.7485 27.8223 26.4666 27.5249 26.9958 26.9956C27.5251 26.4663 27.8225 25.7483 27.8225 24.9998C27.8225 24.251 27.5251 23.5332 26.9958 23.0039C26.4666 22.4744 25.7485 22.177 25 22.177Z" fill="#008060" fill-opacity="1.000000" fill-rule="nonzero"/>
	</g>
</svg>
