<svg width="16.000000" height="16.000000" viewBox="0 0 16 16" fill="none" xmlns="http://www.w3.org/2000/svg" xmlns:xlink="http://www.w3.org/1999/xlink">
	<desc>
			Created with Pixso.
	</desc>
	<defs/>
	<path id="Icon / Search" d="M14.7556 16L9.15552 10.4C8.71118 10.7556 8.19995 11.037 7.62231 11.2444C7.04443 11.4518 6.42969 11.5555 5.77783 11.5555C4.16284 11.5555 2.79639 10.9962 1.67822 9.87732C0.560059 8.75851 0.000488281 7.392 0 5.77777C0 4.16296 0.559326 2.79645 1.67822 1.67822C2.79712 0.559998 4.16357 0.000579834 5.77783 0C7.39258 0 8.75903 0.559418 9.87744 1.67822C10.9956 2.79703 11.5549 4.16354 11.5557 5.77777C11.5557 6.42963 11.4519 7.04443 11.2444 7.62222C11.0371 8.20001 10.7556 8.71112 10.3999 9.15555L16 14.7556L14.7556 16ZM5.77783 9.77777C6.88892 9.77777 7.8335 9.38873 8.61157 8.61066C9.38965 7.83258 9.77832 6.88831 9.77783 5.77777C9.77783 4.66666 9.38867 3.72208 8.6106 2.944C7.83252 2.16592 6.88818 1.77719 5.77783 1.77777C4.66675 1.77777 3.72217 2.16681 2.94409 2.94489C2.16602 3.72296 1.7771 4.66727 1.77783 5.77777C1.77783 6.88889 2.16675 7.8335 2.94482 8.61154C3.7229 9.38962 4.66724 9.77838 5.77783 9.77777Z" fill="#A9A9A9" fill-opacity="1.000000" fill-rule="evenodd"/>
</svg>
